<svg id="visual" viewBox="0 0 900 675" width="900" height="675" xmlns="http://www.w3.org/2000/svg" xmlns:xlink="http://www.w3.org/1999/xlink" version="1.1"><rect x="0" y="0" width="900" height="675" fill="#034170"></rect><defs><linearGradient id="grad1_0" x1="25%" y1="0%" x2="100%" y2="100%"><stop offset="23.333333333333336%" stop-color="#034170" stop-opacity="1"></stop><stop offset="76.66666666666666%" stop-color="#034170" stop-opacity="1"></stop></linearGradient></defs><defs><linearGradient id="grad2_0" x1="0%" y1="0%" x2="75%" y2="100%"><stop offset="23.333333333333336%" stop-color="#034170" stop-opacity="1"></stop><stop offset="76.66666666666666%" stop-color="#034170" stop-opacity="1"></stop></linearGradient></defs><g transform="translate(900, 0)"><path d="M0 534.4C-43.9 499 -87.9 463.6 -148 455.6C-208.2 447.6 -284.5 467 -314.1 432.3C-343.7 397.7 -326.4 308.9 -357.6 259.8C-388.8 210.7 -468.4 201.1 -506 164.4C-543.5 127.7 -538.9 63.8 -534.4 0L0 0Z" fill="#CCCCCC"></path></g><g transform="translate(0, 675)"><path d="M0 -534.4C50.5 -516.8 101 -499.2 157.9 -486C214.8 -472.8 278.2 -464.1 308 -423.9C337.8 -383.7 334 -312.1 368.1 -267.4C402.2 -222.8 474.2 -205.2 508.2 -165.1C542.2 -125.1 538.3 -62.5 534.4 0L0 0Z" fill="#CCCCCC"></path></g></svg>