<svg id="visual" viewBox="0 0 900 100" width="900" height="100" xmlns="http://www.w3.org/2000/svg" xmlns:xlink="http://www.w3.org/1999/xlink" version="1.1"><rect x="0" y="0" width="900" height="100" fill="#001220"></rect><path d="M0 62L12.5 63.8C25 65.7 50 69.3 75 68.7C100 68 125 63 150 62.7C175 62.3 200 66.7 225 68.3C250 70 275 69 300 68.2C325 67.3 350 66.7 375 65C400 63.3 425 60.7 450 61.3C475 62 500 66 525 68.3C550 70.7 575 71.3 600 71.2C625 71 650 70 675 68.7C700 67.3 725 65.7 750 65.2C775 64.7 800 65.3 825 65.8C850 66.3 875 66.7 887.5 66.8L900 67L900 101L887.5 101C875 101 850 101 825 101C800 101 775 101 750 101C725 101 700 101 675 101C650 101 625 101 600 101C575 101 550 101 525 101C500 101 475 101 450 101C425 101 400 101 375 101C350 101 325 101 300 101C275 101 250 101 225 101C200 101 175 101 150 101C125 101 100 101 75 101C50 101 25 101 12.5 101L0 101Z" fill="#042e59"></path><path d="M0 77L12.5 76.2C25 75.3 50 73.7 75 72.7C100 71.7 125 71.3 150 71.2C175 71 200 71 225 72.3C250 73.7 275 76.3 300 77.5C325 78.7 350 78.3 375 77.7C400 77 425 76 450 74.3C475 72.7 500 70.3 525 70.3C550 70.3 575 72.7 600 73.3C625 74 650 73 675 72.7C700 72.3 725 72.7 750 73.3C775 74 800 75 825 75C850 75 875 74 887.5 73.5L900 73L900 101L887.5 101C875 101 850 101 825 101C800 101 775 101 750 101C725 101 700 101 675 101C650 101 625 101 600 101C575 101 550 101 525 101C500 101 475 101 450 101C425 101 400 101 375 101C350 101 325 101 300 101C275 101 250 101 225 101C200 101 175 101 150 101C125 101 100 101 75 101C50 101 25 101 12.5 101L0 101Z" fill="#4c5c80"></path><path d="M0 77L12.5 76.5C25 76 50 75 75 74.3C100 73.7 125 73.3 150 73.8C175 74.3 200 75.7 225 76.8C250 78 275 79 300 78.5C325 78 350 76 375 75C400 74 425 74 450 73.7C475 73.3 500 72.7 525 72.5C550 72.3 575 72.7 600 72.8C625 73 650 73 675 74.2C700 75.3 725 77.7 750 78C775 78.3 800 76.7 825 77C850 77.3 875 79.7 887.5 80.8L900 82L900 101L887.5 101C875 101 850 101 825 101C800 101 775 101 750 101C725 101 700 101 675 101C650 101 625 101 600 101C575 101 550 101 525 101C500 101 475 101 450 101C425 101 400 101 375 101C350 101 325 101 300 101C275 101 250 101 225 101C200 101 175 101 150 101C125 101 100 101 75 101C50 101 25 101 12.5 101L0 101Z" fill="#868fa9"></path><path d="M0 83L12.5 82.5C25 82 50 81 75 82.2C100 83.3 125 86.7 150 87.7C175 88.7 200 87.3 225 86.7C250 86 275 86 300 86.5C325 87 350 88 375 88.3C400 88.7 425 88.3 450 87.2C475 86 500 84 525 84.2C550 84.3 575 86.7 600 87C625 87.3 650 85.7 675 84.2C700 82.7 725 81.3 750 80.5C775 79.7 800 79.3 825 79.2C850 79 875 79 887.5 79L900 79L900 101L887.5 101C875 101 850 101 825 101C800 101 775 101 750 101C725 101 700 101 675 101C650 101 625 101 600 101C575 101 550 101 525 101C500 101 475 101 450 101C425 101 400 101 375 101C350 101 325 101 300 101C275 101 250 101 225 101C200 101 175 101 150 101C125 101 100 101 75 101C50 101 25 101 12.5 101L0 101Z" fill="#c1c5d3"></path><path d="M0 94L12.5 93.5C25 93 50 92 75 91.5C100 91 125 91 150 91C175 91 200 91 225 90.3C250 89.7 275 88.3 300 87.8C325 87.3 350 87.7 375 88.7C400 89.7 425 91.3 450 92.2C475 93 500 93 525 92.5C550 92 575 91 600 90.5C625 90 650 90 675 89.8C700 89.7 725 89.3 750 88.8C775 88.3 800 87.7 825 88.2C850 88.7 875 90.3 887.5 91.2L900 92L900 101L887.5 101C875 101 850 101 825 101C800 101 775 101 750 101C725 101 700 101 675 101C650 101 625 101 600 101C575 101 550 101 525 101C500 101 475 101 450 101C425 101 400 101 375 101C350 101 325 101 300 101C275 101 250 101 225 101C200 101 175 101 150 101C125 101 100 101 75 101C50 101 25 101 12.5 101L0 101Z" fill="#ffffff"></path></svg>