<svg id="visual" viewBox="0 0 960 300" width="960" height="300" xmlns="http://www.w3.org/2000/svg" xmlns:xlink="http://www.w3.org/1999/xlink" version="1.1"><rect x="0" y="0" width="960" height="300" fill="#001220"></rect><path d="M0 189L22.8 190.5C45.7 192 91.3 195 137 195.2C182.7 195.3 228.3 192.7 274 193.8C319.7 195 365.3 200 411.2 198.8C457 197.7 503 190.3 548.8 193.3C594.7 196.3 640.3 209.7 686 209.5C731.7 209.3 777.3 195.7 823 188.8C868.7 182 914.3 182 937.2 182L960 182L960 301L937.2 301C914.3 301 868.7 301 823 301C777.3 301 731.7 301 686 301C640.3 301 594.7 301 548.8 301C503 301 457 301 411.2 301C365.3 301 319.7 301 274 301C228.3 301 182.7 301 137 301C91.3 301 45.7 301 22.8 301L0 301Z" fill="#042e59"></path><path d="M0 221L22.8 219.7C45.7 218.3 91.3 215.7 137 216.5C182.7 217.3 228.3 221.7 274 221.7C319.7 221.7 365.3 217.3 411.2 218.7C457 220 503 227 548.8 228.2C594.7 229.3 640.3 224.7 686 221.2C731.7 217.7 777.3 215.3 823 218.5C868.7 221.7 914.3 230.3 937.2 234.7L960 239L960 301L937.2 301C914.3 301 868.7 301 823 301C777.3 301 731.7 301 686 301C640.3 301 594.7 301 548.8 301C503 301 457 301 411.2 301C365.3 301 319.7 301 274 301C228.3 301 182.7 301 137 301C91.3 301 45.7 301 22.8 301L0 301Z" fill="#4c5c80"></path><path d="M0 224L22.8 228.3C45.7 232.7 91.3 241.3 137 241.2C182.7 241 228.3 232 274 227.7C319.7 223.3 365.3 223.7 411.2 224.2C457 224.7 503 225.3 548.8 228C594.7 230.7 640.3 235.3 686 235.8C731.7 236.3 777.3 232.7 823 235C868.7 237.3 914.3 245.7 937.2 249.8L960 254L960 301L937.2 301C914.3 301 868.7 301 823 301C777.3 301 731.7 301 686 301C640.3 301 594.7 301 548.8 301C503 301 457 301 411.2 301C365.3 301 319.7 301 274 301C228.3 301 182.7 301 137 301C91.3 301 45.7 301 22.8 301L0 301Z" fill="#868fa9"></path><path d="M0 242L22.8 245C45.7 248 91.3 254 137 255.7C182.7 257.3 228.3 254.7 274 254.5C319.7 254.3 365.3 256.7 411.2 255.8C457 255 503 251 548.8 250.2C594.7 249.3 640.3 251.7 686 253.2C731.7 254.7 777.3 255.3 823 255.7C868.7 256 914.3 256 937.2 256L960 256L960 301L937.2 301C914.3 301 868.7 301 823 301C777.3 301 731.7 301 686 301C640.3 301 594.7 301 548.8 301C503 301 457 301 411.2 301C365.3 301 319.7 301 274 301C228.3 301 182.7 301 137 301C91.3 301 45.7 301 22.8 301L0 301Z" fill="#c1c5d3"></path><path d="M0 267L22.8 266.7C45.7 266.3 91.3 265.7 137 268.3C182.7 271 228.3 277 274 278.3C319.7 279.7 365.3 276.3 411.2 274.3C457 272.3 503 271.7 548.8 273C594.7 274.3 640.3 277.7 686 278C731.7 278.3 777.3 275.7 823 275.8C868.7 276 914.3 279 937.2 280.5L960 282L960 301L937.2 301C914.3 301 868.7 301 823 301C777.3 301 731.7 301 686 301C640.3 301 594.7 301 548.8 301C503 301 457 301 411.2 301C365.3 301 319.7 301 274 301C228.3 301 182.7 301 137 301C91.3 301 45.7 301 22.8 301L0 301Z" fill="#ffffff"></path></svg>