<svg id="visual" viewBox="0 0 900 675" width="900" height="675" xmlns="http://www.w3.org/2000/svg" xmlns:xlink="http://www.w3.org/1999/xlink" version="1.1"><path d="M0 89L13.7 100.2C27.3 111.3 54.7 133.7 82 144.8C109.3 156 136.7 156 163.8 161.7C191 167.3 218 178.7 245.2 186.7C272.3 194.7 299.7 199.3 327 212.8C354.3 226.3 381.7 248.7 409 231.7C436.3 214.7 463.7 158.3 491 138.2C518.3 118 545.7 134 573 137.5C600.3 141 627.7 132 654.8 124C682 116 709 109 736.2 136C763.3 163 790.7 224 818 242C845.3 260 872.7 235 886.3 222.5L900 210L900 0L886.3 0C872.7 0 845.3 0 818 0C790.7 0 763.3 0 736.2 0C709 0 682 0 654.8 0C627.7 0 600.3 0 573 0C545.7 0 518.3 0 491 0C463.7 0 436.3 0 409 0C381.7 0 354.3 0 327 0C299.7 0 272.3 0 245.2 0C218 0 191 0 163.8 0C136.7 0 109.3 0 82 0C54.7 0 27.3 0 13.7 0L0 0Z" fill="#0066ff"></path><path d="M0 325L13.7 331.8C27.3 338.7 54.7 352.3 82 368.2C109.3 384 136.7 402 163.8 393C191 384 218 348 245.2 331C272.3 314 299.7 316 327 323.8C354.3 331.7 381.7 345.3 409 346.5C436.3 347.7 463.7 336.3 491 335.2C518.3 334 545.7 343 573 344.2C600.3 345.3 627.7 338.7 654.8 342C682 345.3 709 358.7 736.2 373.3C763.3 388 790.7 404 818 405.2C845.3 406.3 872.7 392.7 886.3 385.8L900 379L900 208L886.3 220.5C872.7 233 845.3 258 818 240C790.7 222 763.3 161 736.2 134C709 107 682 114 654.8 122C627.7 130 600.3 139 573 135.5C545.7 132 518.3 116 491 136.2C463.7 156.3 436.3 212.7 409 229.7C381.7 246.7 354.3 224.3 327 210.8C299.7 197.3 272.3 192.7 245.2 184.7C218 176.7 191 165.3 163.8 159.7C136.7 154 109.3 154 82 142.8C54.7 131.7 27.3 109.3 13.7 98.2L0 87Z" fill="#5a7ef7"></path><path d="M0 460L13.7 453.3C27.3 446.7 54.7 433.3 82 434.5C109.3 435.7 136.7 451.3 163.8 447.8C191 444.3 218 421.7 245.2 416C272.3 410.3 299.7 421.7 327 426.2C354.3 430.7 381.7 428.3 409 423.8C436.3 419.3 463.7 412.7 491 410.5C518.3 408.3 545.7 410.7 573 420.8C600.3 431 627.7 449 654.8 464.7C682 480.3 709 493.7 736.2 493.7C763.3 493.7 790.7 480.3 818 468C845.3 455.7 872.7 444.3 886.3 438.7L900 433L900 377L886.3 383.8C872.7 390.7 845.3 404.3 818 403.2C790.7 402 763.3 386 736.2 371.3C709 356.7 682 343.3 654.8 340C627.7 336.7 600.3 343.3 573 342.2C545.7 341 518.3 332 491 333.2C463.7 334.3 436.3 345.7 409 344.5C381.7 343.3 354.3 329.7 327 321.8C299.7 314 272.3 312 245.2 329C218 346 191 382 163.8 391C136.7 400 109.3 382 82 366.2C54.7 350.3 27.3 336.7 13.7 329.8L0 323Z" fill="#8296ed"></path><path d="M0 595L13.7 597.3C27.3 599.7 54.7 604.3 82 602.2C109.3 600 136.7 591 163.8 584.2C191 577.3 218 572.7 245.2 576C272.3 579.3 299.7 590.7 327 600.8C354.3 611 381.7 620 409 614.3C436.3 608.7 463.7 588.3 491 580.5C518.3 572.7 545.7 577.3 573 586.3C600.3 595.3 627.7 608.7 654.8 608.7C682 608.7 709 595.3 736.2 592C763.3 588.7 790.7 595.3 818 597.5C845.3 599.7 872.7 597.3 886.3 596.2L900 595L900 431L886.3 436.7C872.7 442.3 845.3 453.7 818 466C790.7 478.3 763.3 491.7 736.2 491.7C709 491.7 682 478.3 654.8 462.7C627.7 447 600.3 429 573 418.8C545.7 408.7 518.3 406.3 491 408.5C463.7 410.7 436.3 417.3 409 421.8C381.7 426.3 354.3 428.7 327 424.2C299.7 419.7 272.3 408.3 245.2 414C218 419.7 191 442.3 163.8 445.8C136.7 449.3 109.3 433.7 82 432.5C54.7 431.3 27.3 444.7 13.7 451.3L0 458Z" fill="#a3aee2"></path><path d="M0 676L13.7 676C27.3 676 54.7 676 82 676C109.3 676 136.7 676 163.8 676C191 676 218 676 245.2 676C272.3 676 299.7 676 327 676C354.3 676 381.7 676 409 676C436.3 676 463.7 676 491 676C518.3 676 545.7 676 573 676C600.3 676 627.7 676 654.8 676C682 676 709 676 736.2 676C763.3 676 790.7 676 818 676C845.3 676 872.7 676 886.3 676L900 676L900 593L886.3 594.2C872.7 595.3 845.3 597.7 818 595.5C790.7 593.3 763.3 586.7 736.2 590C709 593.3 682 606.7 654.8 606.7C627.7 606.7 600.3 593.3 573 584.3C545.7 575.3 518.3 570.7 491 578.5C463.7 586.3 436.3 606.7 409 612.3C381.7 618 354.3 609 327 598.8C299.7 588.7 272.3 577.3 245.2 574C218 570.7 191 575.3 163.8 582.2C136.7 589 109.3 598 82 600.2C54.7 602.3 27.3 597.7 13.7 595.3L0 593Z" fill="#c3c6d5"></path></svg>