<svg id="visual" viewBox="0 0 900 675" width="900" height="675" xmlns="http://www.w3.org/2000/svg" xmlns:xlink="http://www.w3.org/1999/xlink" version="1.1"><rect x="0" y="0" width="900" height="675" fill="#507ec2"></rect><path d="M0 156L6.8 150.2C13.7 144.3 27.3 132.7 41 125C54.7 117.3 68.3 113.7 82 114C95.7 114.3 109.3 118.7 123 113.2C136.7 107.7 150.3 92.3 164 94C177.7 95.7 191.3 114.3 204.8 115.5C218.3 116.7 231.7 100.3 245.2 96.7C258.7 93 272.3 102 286 97.3C299.7 92.7 313.3 74.3 327 68.3C340.7 62.3 354.3 68.7 368 85.8C381.7 103 395.3 131 409 145.2C422.7 159.3 436.3 159.7 450 157.2C463.7 154.7 477.3 149.3 491 136.3C504.7 123.3 518.3 102.7 532 88.8C545.7 75 559.3 68 573 76.8C586.7 85.7 600.3 110.3 614 106.8C627.7 103.3 641.3 71.7 654.8 59.3C668.3 47 681.7 54 695.2 57.2C708.7 60.3 722.3 59.7 736 58C749.7 56.3 763.3 53.7 777 59.7C790.7 65.7 804.3 80.3 818 93.3C831.7 106.3 845.3 117.7 859 109.8C872.7 102 886.3 75 893.2 61.5L900 48L900 0L893.2 0C886.3 0 872.7 0 859 0C845.3 0 831.7 0 818 0C804.3 0 790.7 0 777 0C763.3 0 749.7 0 736 0C722.3 0 708.7 0 695.2 0C681.7 0 668.3 0 654.8 0C641.3 0 627.7 0 614 0C600.3 0 586.7 0 573 0C559.3 0 545.7 0 532 0C518.3 0 504.7 0 491 0C477.3 0 463.7 0 450 0C436.3 0 422.7 0 409 0C395.3 0 381.7 0 368 0C354.3 0 340.7 0 327 0C313.3 0 299.7 0 286 0C272.3 0 258.7 0 245.2 0C231.7 0 218.3 0 204.8 0C191.3 0 177.7 0 164 0C150.3 0 136.7 0 123 0C109.3 0 95.7 0 82 0C68.3 0 54.7 0 41 0C27.3 0 13.7 0 6.8 0L0 0Z" fill="#FFFFFF" stroke-linecap="round" stroke-linejoin="miter"></path></svg>