<svg id="visual" viewBox="0 0 1600 540" width="100%" height="540" xmlns="http://www.w3.org/2000/svg" xmlns:xlink="http://www.w3.org/1999/xlink" version="1.1"><rect x="0" y="0" width="100%" height="540" fill="#FFFFFF"></rect><path d="M0 195L22.8 178.2C45.7 161.3 91.3 127.7 137 115.5C182.7 103.3 228.3 112.7 274 128.7C319.7 144.7 365.3 167.3 411.2 170.7C457 174 503 158 548.8 148.2C594.7 138.3 640.3 134.7 686 128.5C731.7 122.3 777.3 113.7 823 123.3C868.7 133 914.3 161 937.2 175L960 189L960 0L937.2 0C914.3 0 868.7 0 823 0C777.3 0 731.7 0 686 0C640.3 0 594.7 0 548.8 0C503 0 457 0 411.2 0C365.3 0 319.7 0 274 0C228.3 0 182.7 0 137 0C91.3 0 45.7 0 22.8 0L0 0Z" fill="#0c225b" stroke-linecap="round" stroke-linejoin="miter"></path></svg>