<svg xmlns="http://www.w3.org/2000/svg" version="1.1" xmlns:xlink="http://www.w3.org/1999/xlink" xmlns:svgjs="http://svgjs.com/svgjs" width="1440" height="560" preserveAspectRatio="none" viewBox="0 0 1440 560"><g mask="url(&quot;#SvgjsMask1016&quot;)" fill="none"><rect width="1440" height="560" x="0" y="0" fill="#0e2a47"></rect><path d="M 0,399 C 96,356.2 288,201.4 480,185 C 672,168.6 768,302.8 960,317 C 1152,331.2 1344,268.2 1440,256L1440 560L0 560z" fill="#b8d38e"></path><path d="M 0,403 C 36,339.2 108,71.4 180,84 C 252,96.6 288,454.6 360,466 C 432,477.4 468,129 540,141 C 612,153 648,552.6 720,526 C 792,499.4 828,54.6 900,8 C 972,-38.6 1008,239.8 1080,293 C 1152,346.2 1188,235.8 1260,274 C 1332,312.2 1404,442 1440,484L1440 560L0 560z" fill="rgba(102, 213, 167, 1)"></path><path d="M 0,286 C 32,252.8 96,92 160,120 C 224,148 256,423 320,426 C 384,429 416,136 480,135 C 544,134 576,434 640,421 C 704,408 736,52.8 800,70 C 864,87.2 896,502 960,507 C 1024,512 1056,97.8 1120,95 C 1184,92.2 1216,486.6 1280,493 C 1344,499.4 1408,200.2 1440,127L1440 560L0 560z" fill="rgba(65, 159, 71, 1)"></path></g><defs><mask id="SvgjsMask1016"><rect width="1440" height="560" fill="#ffffff"></rect></mask></defs></svg>